<mxfile host="app.diagrams.net" modified="2023-04-12T04:49:52.991Z" agent="Mozilla/5.0 (Windows NT 10.0; Win64; x64) AppleWebKit/537.36 (KHTML, like Gecko) Chrome/111.0.0.0 Safari/537.36" version="21.1.6" etag="Z9wORCKX6Ci2AvFdEW9T" type="github">
  <diagram name="페이지-1" id="n7p4ODuu9HMGHPl9LrqC">
    <mxGraphModel>
      <root>
        <mxCell id="0" />
        <mxCell id="1" parent="0" />
      </root>
    </mxGraphModel>
  </diagram>
</mxfile>
